0
SECTION
2
HEADER
9
$INSUNITS
70
4
9
$ACADVER
1
AC1014
9
$HANDSEED
5
FFFF
0
ENDSEC
0
SECTION
2
TABLES
0
TABLE
2
VPORT
5
8
100
AcDbSymbolTable
0
ENDTAB
0
TABLE
2
LTYPE
5
5
100
AcDbSymbolTable
0
LTYPE
5
14
100
AcDbSymbolTableRecord
100
AcDbLinetypeTableRecord
2
BYBLOCK
70
0
0
LTYPE
5
15
100
AcDbSymbolTableRecord
100
AcDbLinetypeTableRecord
2
BYLAYER
70
0
0
ENDTAB
0
TABLE
2
LAYER
5
2
100
AcDbSymbolTable
70
2
0
LAYER
5
50
100
AcDbSymbolTableRecord
100
AcDbLayerTableRecord
2
0
70
0
6
CONTINUOUS
0
ENDTAB
0
TABLE
2
STYLE
5
3
100
AcDbSymbolTable
70
1
0
STYLE
5
11
100
AcDbSymbolTableRecord
100
AcDbTextStyleTableRecord
2
STANDARD
70
0
0
ENDTAB
0
TABLE
2
VIEW
5
6
100
AcDbSymbolTable
70
0
0
ENDTAB
0
TABLE
2
UCS
5
7
100
AcDbSymbolTable
70
0
0
ENDTAB
0
TABLE
2
APPID
5
9
100
AcDbSymbolTable
70
2
0
APPID
5
12
100
AcDbSymbolTableRecord
100
AcDbRegAppTableRecord
2
ACAD
70
0
0
ENDTAB
0
TABLE
2
DIMSTYLE
5
A
100
AcDbSymbolTable
70
1
0
ENDTAB
0
TABLE
2
BLOCK_RECORD
5
1
100
AcDbSymbolTable
70
1
0
BLOCK_RECORD
5
1F
100
AcDbSymbolTableRecord
100
AcDbBlockTableRecord
2
*MODEL_SPACE
0
BLOCK_RECORD
5
1B
100
AcDbSymbolTableRecord
100
AcDbBlockTableRecord
2
*PAPER_SPACE
0
ENDTAB
0
ENDSEC
0
SECTION
2
BLOCKS
0
BLOCK
5
20
100
AcDbEntity
100
AcDbBlockBegin
2
*MODEL_SPACE
0
ENDBLK
5
21
100
AcDbEntity
100
AcDbBlockEnd
0
BLOCK
5
1C
100
AcDbEntity
100
AcDbBlockBegin
2
*PAPER_SPACE
0
ENDBLK
5
1D
100
AcDbEntity
100
AcDbBlockEnd
0
ENDSEC
0
SECTION
2
ENTITIES
0
LWPOLYLINE
5
100
100
AcDbEntity
8
0
100
AcDbPolyline
90
8
70
1
43
0.0
10
-191.86463836884326
20
-92.450504816139613
42
0.41421356237309509
10
-190.86462104060519
20
-93.450487487601038
10
-180.76462104212158
20
-93.450312470879155
42
0.41421356237310542
10
-179.76463837066004
20
-92.450295142640968
10
-179.76505832407236
20
-68.215299680869023
42
0.41421356237309759
10
-180.76507565231054
20
-67.215317009407471
10
-190.86507565079415
20
-67.215492026129468
42
0.41421356237309243
10
-191.86505832225572
20
-68.215509354367668
0
LWPOLYLINE
5
101
100
AcDbEntity
8
0
100
AcDbPolyline
90
8
70
1
43
0.0
10
-199.76196063570981
20
-25.401457931726256
42
0.41421356237285917
10
-200.12796236841382
20
-26.767489677937164
10
-193.82777328332139
20
-37.679300595109787
42
0.41421356237259793
10
-192.46174153711161
20
-38.045302327815371
10
-181.54993061993196
20
-31.74511324274399
42
0.41421356237129769
10
-181.18392888722181
20
-30.379081496538632
10
-187.48411797224438
20
-19.46727057928863
42
0.41421356237563267
10
-188.85014971846033
20
-19.101268846577497
0
LWPOLYLINE
5
102
100
AcDbEntity
8
0
100
AcDbPolyline
90
8
70
1
43
0.0
10
-230.68188446119774
20
-85.635876455430079
42
0.41421356237309509
10
-231.68186713265928
20
-86.635893783668251
10
-231.68165919199942
20
-98.635893781866613
42
0.4142135623731002
10
-230.68164186376126
20
-99.635876453328152
10
-218.08164186565301
20
-99.635658115635323
42
0.41421356237309509
10
-217.08165919419147
20
-98.635640787397136
10
-217.08186713485128
20
-86.635640789198789
42
0.41421356237309509
10
-218.08188446308947
20
-85.63565811773725
0
LWPOLYLINE
5
103
100
AcDbEntity
8
0
100
AcDbPolyline
90
8
70
1
43
0.0
10
-249.68217254280094
20
-69.011205697304149
42
0.41421356237310281
10
-250.68215521426248
20
-70.01122302554235
10
-250.68194727360267
20
-82.011223023740712
42
0.41421356237307427
10
-249.68192994536452
20
-83.011205695202221
10
-237.08192994725621
20
-83.010987357509421
42
0.41421356237309509
10
-236.08194727579468
20
-82.010970029271249
10
-236.08215521645448
20
-70.010970031072901
42
0.41421356237309759
10
-237.0821725446927
20
-69.010987359611363
0
LWPOLYLINE
5
104
100
AcDbEntity
8
0
100
AcDbPolyline
90
8
70
1
43
0.0
10
-268.6825429342486
20
-47.636534939891384
42
0.41421356237309509
10
-269.68252560571017
20
-48.636552268129563
10
-269.68231766505039
20
-60.636552266327932
42
0.41421356237309759
10
-268.6823003368122
20
-61.636534937789484
10
-256.08230033870387
20
-61.636316600096663
42
0.41421356237309243
10
-255.08231766724234
20
-60.636299271858491
10
-255.08252560790214
20
-48.636299273660093
42
0.41421356237310281
10
-256.08254293614033
20
-47.636316602198541
0
LWPOLYLINE
5
105
100
AcDbEntity
8
0
100
AcDbPolyline
90
8
70
1
43
0.0
10
-306.68196675963191
20
-80.887193413655453
42
0.41421356237309509
10
-307.68194943109341
20
-81.887210741893625
10
-307.68174149043364
20
-93.887210740092002
42
0.41421356237309509
10
-306.68172416219539
20
-94.887193411553525
10
-294.08172416408712
20
-94.886975073860725
42
0.41421356237310542
10
-293.08174149262555
20
-93.886957745622539
10
-293.08194943328539
20
-81.886957747424134
42
0.41421356237309509
10
-294.08196676152357
20
-80.886975075962624
0
LWPOLYLINE
5
106
100
AcDbEntity
8
0
100
AcDbPolyline
90
8
70
1
43
0.0
10
-306.68262523838797
20
-42.887193419360628
42
0.41421356237309759
10
-307.68260790984948
20
-43.887210747598822
10
-307.6823999691897
20
-55.887210745797155
42
0.41421356237309759
10
-306.68238264095146
20
-56.8871934172587
10
-294.08238264284319
20
-56.8869750795659
42
0.41421356237309509
10
-293.08239997138168
20
-55.886957751327714
10
-293.08260791204145
20
-43.88695775312933
42
0.41421356237309509
10
-294.08262524027964
20
-42.886975081667806
0
LWPOLYLINE
5
107
100
AcDbEntity
8
0
100
AcDbPolyline
90
8
70
1
43
0.0
10
-288.68239997204228
20
-55.88688150641913
42
0.41421356237309509
10
-287.68238264380409
20
-56.886864177880661
10
-275.08238264569576
20
-56.886645840187846
42
0.41421356237309509
10
-274.08239997423425
20
-55.886628511949667
10
-274.08260791489408
20
-43.886628513751312
42
0.41421356237309759
10
-275.08262524313227
20
-42.886645842289767
10
-287.68262524124054
20
-42.886864179982574
42
0.41421356237309509
10
-288.68260791270211
20
-43.88688150822076
0
LWPOLYLINE
5
108
100
AcDbEntity
8
0
100
AcDbPolyline
90
8
70
1
43
0.0
10
-250.68161803422458
20
-101.0112230208881
42
0.41421356237308982
10
-249.6816007059864
20
-102.01120569234962
10
-237.08160070787815
20
-102.01098735465679
42
0.41421356237308465
10
-236.08161803641664
20
-101.01097002641865
10
-236.08182597707639
20
-89.010970028220271
42
0.41421356237309509
10
-237.08184330531458
20
-88.010987356758761
10
-249.68184330342291
20
-88.011205694451547
42
0.41421356237309509
10
-250.68182597488442
20
-89.011223022689734
0
LWPOLYLINE
5
109
100
AcDbEntity
8
0
100
AcDbPolyline
90
8
70
1
43
0.0
10
-231.68198843137748
20
-79.635893784719244
42
0.4142135623731002
10
-230.68197110313932
20
-80.635876456180796
10
-218.08197110503107
20
-80.635658118487981
42
0.41421356237309243
10
-217.08198843356953
20
-79.635640790249795
10
-217.08219637422934
20
-67.635640792051461
42
0.4142135623731002
10
-218.08221370246756
20
-66.635658120589909
10
-230.6822137005758
20
-66.635876458282709
42
0.41421356237309243
10
-231.68219637203734
20
-67.635893786520882
0
LWPOLYLINE
5
110
100
AcDbEntity
8
0
100
AcDbPolyline
90
8
70
1
43
0.0
10
-211.68258409772869
20
-45.2605472221138
42
0.41421356237309509
10
-212.68256676919023
20
-46.26056455035198
10
-212.68235882853043
20
-58.260564548550349
42
0.41421356237309759
10
-211.68234150029221
20
-59.260547220011894
10
-199.08234150218391
20
-59.260328882319079
42
0.41421356237309759
10
-198.08235883072243
20
-58.2603115540809
10
-198.08256677138218
20
-46.260311555882517
42
0.4142135623731002
10
-199.08258409962036
20
-45.260328884420964
0
LWPOLYLINE
5
111
100
AcDbEntity
8
0
100
AcDbPolyline
90
8
70
1
43
0.0
10
-220.81239733580904
20
-27.180037156208922
42
0.41421356237149909
10
-221.51948289403151
20
-28.404794280434938
10
-218.41345349803319
20
-39.995850375165681
42
0.41421356237467682
10
-217.18869637380052
20
-40.70293593339197
10
-205.01808747435305
20
-37.44160506752791
42
0.41421356237208529
10
-204.31100191613112
20
-36.216847943299918
10
-207.41703131215328
20
-24.625791848575748
42
0.41421356237407292
10
-208.64178843638541
20
-23.918706290351444
0
LWPOLYLINE
5
112
100
AcDbEntity
8
0
100
AcDbPolyline
90
8
70
1
43
0.0
10
-212.6817003497743
20
-96.260564542845202
42
0.41421356237309509
10
-211.68168302153612
20
-97.260547214306726
10
-199.08168302342779
20
-97.260328876613912
42
0.41421356237309509
10
-198.08170035196628
20
-96.260311548375739
10
-198.08190829262605
20
-84.260311550177335
42
0.41421356237311063
10
-199.08192562086427
20
-83.260328878715796
10
-211.68192561897257
20
-83.260547216408597
42
0.41421356237309509
10
-212.68190829043414
20
-84.260564544646783
0
LWPOLYLINE
5
113
100
AcDbEntity
8
0
100
AcDbPolyline
90
8
70
1
43
0.0
10
-249.682501782179
20
-50.011205700156729
42
0.41421356237310281
10
-250.68248445364051
20
-51.01122302839493
10
-250.68227651298074
20
-63.011223026593264
42
0.41421356237309759
10
-249.68225918474252
20
-64.011205698054809
10
-237.08225918663425
20
-64.010987360361995
42
0.41421356237309759
10
-236.08227651517271
20
-63.010970032123822
10
-236.08248445583251
20
-51.010970033925474
42
0.41421356237310281
10
-237.0825017840707
20
-50.010987362463915
0
LWPOLYLINE
5
114
100
AcDbEntity
8
0
100
AcDbPolyline
90
7
70
1
43
0.0
10
-255.08221369691242
20
-66.636299270957679
10
-255.08198842786427
20
-79.636299269005903
42
-0.41421356237309243
10
-256.08197109932581
20
-80.636316597244075
10
-268.68197109743414
20
-80.636534934936904
42
-0.41421356237309759
10
-269.68198842567233
20
-79.636552263475352
10
-269.68219636633211
20
-67.636552265276976
42
-0.41421356237308726
10
-268.68221369487054
20
-66.636534937038789
0
LWPOLYLINE
5
115
100
AcDbEntity
8
0
100
AcDbPolyline
90
8
70
1
43
0.0
10
-287.68196676248442
20
-80.886864174277392
42
0.4142135623731002
10
-288.68194943394599
20
-81.886881502515564
10
-288.68174149328615
20
-93.886881500713955
42
0.41421356237309509
10
-287.68172416504797
20
-94.886864172175478
10
-275.08172416693969
20
-94.886645834482678
42
0.41421356237309509
10
-274.08174149547813
20
-93.886628506244492
10
-274.08194943613802
20
-81.886628508046115
42
0.41421356237309509
10
-275.08196676437615
20
-80.886645836584592
0
LWPOLYLINE
5
116
100
AcDbEntity
8
0
100
AcDbPolyline
90
8
70
1
43
0.0
10
-306.68229599900991
20
-61.887193416508026
42
0.41421356237309759
10
-307.68227867047142
20
-62.88721074474622
10
-307.68207072981164
20
-74.887210742944575
42
0.41421356237309759
10
-306.6820534015734
20
-75.887193414406113
10
-294.08205340346518
20
-75.886975076713284
42
0.41421356237308982
10
-293.08207073200361
20
-74.886957748475112
10
-293.08227867266345
20
-62.88695775027675
42
0.41421356237309759
10
-294.08229600090164
20
-61.886975078815205
0
LWPOLYLINE
5
117
100
AcDbEntity
8
0
100
AcDbPolyline
90
8
70
1
43
0.0
10
-287.68229600186248
20
-61.886864177129979
42
0.41421356237309759
10
-288.68227867332399
20
-62.886881505368173
10
-288.68207073266422
20
-74.886881503566528
42
0.4142135623731002
10
-287.68205340442603
20
-75.88686417502808
10
-275.08205340631775
20
-75.886645837335266
42
0.41421356237309509
10
-274.08207073485619
20
-74.886628509097079
10
-274.08227867551602
20
-62.886628510898667
42
0.41421356237309759
10
-275.08229600375421
20
-61.886645839437122
0
LWPOLYLINE
5
118
100
AcDbEntity
8
0
100
AcDbPolyline
90
8
70
1
43
0.0
10
-268.68188445549254
20
-85.636534934186187
42
0.41421356237309509
10
-269.6818671269541
20
-86.636552262424374
10
-269.68165918629427
20
-98.636552260622707
42
0.41421356237309509
10
-268.68164185805608
20
-99.63653493208426
10
-256.08164185994781
20
-99.636316594391474
42
0.41421356237309509
10
-255.08165918848624
20
-98.636299266153287
10
-255.08186712914608
20
-86.636299267954939
42
0.41421356237309509
10
-256.08188445738426
20
-85.63631659649343
0
LWPOLYLINE
5
119
100
AcDbEntity
8
0
100
AcDbPolyline
90
8
70
1
43
0.0
10
-230.68254293995383
20
-47.635876461135297
42
0.41421356237309509
10
-231.6825256114154
20
-48.635893789373483
10
-231.68231767075551
20
-60.635893787571852
42
0.4142135623731002
10
-230.68230034251735
20
-61.635876459033405
10
-218.08230034440911
20
-61.635658121340583
42
0.41421356237309243
10
-217.08231767294757
20
-60.635640793102404
10
-217.08252561360737
20
-48.635640794904027
42
0.41421356237309759
10
-218.08254294184559
20
-47.635658123442482
0
LWPOLYLINE
5
120
100
AcDbEntity
8
0
100
AcDbPolyline
90
8
70
1
43
0.0
10
-212.68202958915236
20
-77.260564545697747
42
0.4142135623731002
10
-211.68201226091418
20
-78.260547217159285
10
-199.0820122628059
20
-78.260328879466471
42
0.41421356237309759
10
-198.08202959134434
20
-77.260311551228298
10
-198.0822375320042
20
-65.26031155302995
42
0.4142135623731002
10
-199.08225486024236
20
-64.260328881568412
10
-211.68225485835063
20
-64.260547219261184
42
0.4142135623731002
10
-212.68223752981214
20
-65.260564547499385
0
LWPOLYLINE
5
121
100
AcDbEntity
8
0
100
AcDbPolyline
90
8
70
1
43
0.0
10
-240.18288356265671
20
-27.979041083775556
42
0.41421356237309509
10
-241.18286623411825
20
-28.979058412013742
10
-241.18265829345845
20
-40.979058410212119
42
0.41421356237309759
10
-240.18264096522023
20
-41.979041081673657
10
-227.58264096711196
20
-41.978822743980835
42
0.41421356237309509
10
-226.58265829565045
20
-40.97880541574267
10
-226.58286623631022
20
-28.978805417544287
42
0.41421356237309892
10
-227.58288356454841
20
-27.978822746082738
0
LWPOLYLINE
5
122
100
AcDbEntity
8
0
100
AcDbPolyline
90
96
70
1
43
0.0
10
-253.73152316084384
20
-106.48627587182524
10
-253.73152619331131
20
-106.31127587167526
42
-0.41421356237222096
10
-253.23153485758047
20
-105.81126720755763
10
-233.53153486053554
20
-105.81092583830781
42
-0.41421356237309509
10
-233.03152619641645
20
-106.31091717403859
10
-233.03152316394852
20
-106.48591717418552
42
0.41421356237306384
10
-232.53151449982943
20
-106.98590850991623
10
-207.03151450365789
20
-106.98546663601408
42
0.41421356237308637
10
-204.03156648927325
20
-103.98541465129951
10
-204.03159118222661
20
-102.56041465134032
42
-0.4142135623730881
10
-202.53161717503428
20
-101.06038865898307
10
-196.63161717592007
20
-101.06028642149198
42
0.41421356237309853
10
-195.13164316872775
20
-99.560260429134701
10
-195.13166829216343
20
-98.110417825149909
42
-0.41423990178317943
10
-194.13159569316829
20
-97.110400499396945
10
-177.03244132445514
20
-97.111641883392323
42
0.41423736405445616
10
-175.03229612623957
20
-95.111624560274691
10
-175.03257738679932
20
-62.649221803370494
42
0.414216100059073
10
-176.03259471515008
20
-61.64923046771478
10
-179.53257738636711
20
-61.649291116773625
42
-0.41421610005908344
10
-180.53259471471787
20
-60.649299781117911
10
-180.53261115058154
20
-58.752312777409166
42
0.41421610005906256
10
-181.03261981475694
20
-58.252317109581313
10
-190.62423962948509
20
-58.252483316894086
42
-0.41421610005912501
10
-191.12424829366049
20
-57.752487649066225
10
-191.12426562212386
20
-55.752478984909608
42
-0.41421356237310542
10
-190.62426995423971
20
-55.252474652831296
10
-189.48831469622363
20
-55.252464810694377
42
0.41421356237311063
10
-188.98831902833948
20
-54.752460478616065
10
-188.9883871643232
20
-46.888372659009462
42
-0.41421356237307427
10
-188.48839149643905
20
-46.38836832693115
10
-176.0327182749632
20
-46.388260408560001
42
0.41421356237309759
10
-175.03272693919487
20
-45.388251744403405
10
-175.03282184185491
20
-34.434819889649695
42
0.1316547011793977
10
-175.23379673260825
20
-33.684810375816767
10
-177.8028596644964
20
-29.235240915480205
42
-0.41421366382672897
10
-177.61985864815364
20
-28.552224955776726
10
-177.57655877727714
20
-28.527224783235937
42
0.41421366382677433
10
-176.47855271091424
20
-24.42912914330412
10
-182.47873297378879
20
-14.036927954769197
42
0.4142135623730529
10
-186.57682821241764
20
-12.938922756637091
10
-187.18303993020248
20
-13.288933261455307
42
-0.41421356237306056
10
-187.8660558033074
20
-13.105932395099922
10
-188.19106555766393
20
-12.543021514503902
42
0.41421356237309886
10
-191.05973222470439
20
-11.774417875811508
10
-191.5360414314132
20
-12.049426129527081
42
-0.41421356237308604
10
-192.2190573045182
20
-11.866425263171722
10
-192.56906780924152
20
-11.260213545547311
42
0.41421356237308737
10
-196.66716304786976
20
-10.162208347415662
10
-203.59529696355284
20
-14.162328401412939
42
0.41421356237310281
10
-204.69330216168476
20
-18.260423640042166
10
-204.66830141134687
20
-18.303724477015887
42
-0.41421356237310758
10
-204.85130227770225
20
-18.986740350120723
10
-205.18641332936647
20
-19.180224548664185
42
-0.099124638188905143
10
-205.74435186821475
20
-19.368849851357975
10
-215.52591012364047
20
-20.631835119913319
42
-0.41421356237310247
10
-216.0858215846938
20
-20.199979639710619
10
-216.09222438373664
20
-20.150391292646784
42
0.41421356237311335
10
-219.45169315005808
20
-17.559258411429653
10
-231.35289644512963
20
-19.095930181637705
42
0.41421356237309043
10
-233.94402932634566
20
-22.455398947957885
10
-233.93762652730285
20
-22.504987295022811
42
-0.41421356237308177
10
-234.3694820075055
20
-23.064898756076168
10
-242.996248820679
20
-24.178778479100544
42
0.20592414080608493
10
-244.01616498980314
20
-24.78265535683121
10
-254.29639581354229
20
-38.880883828509745
42
-0.23961732583571588
10
-254.70038719614817
20
-39.086292650383541
10
-265.88269109238911
20
-39.086486421687695
42
-0.41421356237310802
10
-266.3826997565082
20
-38.586495085956891
10
-266.38270062292759
20
-38.53649508596466
42
0.41421356237311019
10
-269.38275260764226
20
-35.536547071579882
10
-293.3827526040389
20
-35.536962952899493
42
0.41421356237309198
10
-296.38270061842354
20
-38.537014937614032
10
-296.3826997520041
20
-38.58701493760654
42
-0.41421356237309243
10
-296.88269108773488
20
-39.087023601725626
10
-308.53269108598579
20
-39.087225477449543
42
0.41421356237309992
10
-311.18264516535896
20
-41.737271397280715
10
-311.18244328963499
20
-53.387271395531613
42
-0.41421356237309509
10
-311.68243462536577
20
-53.887280059650706
10
-311.73243462535828
20
-53.887280926070119
42
0.41421356237308982
10
-314.73238263974292
20
-56.887332910784671
10
-314.73196675842325
20
-80.887332907181388
42
0.41421356237310542
10
-311.7319147737087
20
-83.887280921566003
10
-311.68191477371624
20
-83.887280055146576
42
-0.41421356237309509
10
-311.18190610959709
20
-84.387271390877387
10
-311.18170423387323
20
-96.037271389128279
42
0.41421356237310286
10
-308.53165831404203
20
-98.687225468501367
10
-302.2316583149879
20
-98.68711629965496
42
-0.41421356237309509
10
-301.7316496508688
20
-99.187107635385729
10
-301.73164878444942
20
-99.237107635378266
42
0.41421356237309681
10
-298.7315967997348
20
-102.23705564976287
10
-274.23159680343502
20
-102.23663110424908
42
-0.41421356236671636
10
-273.73158813932133
20
-102.73662243996354
10
-273.7315664788087
20
-103.98662244003084
42
0.4142135623667112
10
-270.73151449409414
20
-106.98657045435012
10
-254.23151449657462
20
-106.98628453594284
42
0.41421356237223134
0
ENDSEC
0
SECTION
2
OBJECTS
0
DICTIONARY
5
C
100
AcDbDictionary
3
ACAD_GROUP
350
D
3
ACAD_MLINESTYLE
350
17
0
DICTIONARY
5
D
100
AcDbDictionary
0
DICTIONARY
5
1A
330
C
100
AcDbDictionary
0
DICTIONARY
5
17
100
AcDbDictionary
0
ENDSEC
0
EOF
