0
SECTION
2
HEADER
9
$INSUNITS
70
4
9
$ACADVER
1
AC1014
9
$HANDSEED
5
FFFF
0
ENDSEC
0
SECTION
2
TABLES
0
TABLE
2
VPORT
5
8
100
AcDbSymbolTable
0
ENDTAB
0
TABLE
2
LTYPE
5
5
100
AcDbSymbolTable
0
LTYPE
5
14
100
AcDbSymbolTableRecord
100
AcDbLinetypeTableRecord
2
BYBLOCK
70
0
0
LTYPE
5
15
100
AcDbSymbolTableRecord
100
AcDbLinetypeTableRecord
2
BYLAYER
70
0
0
ENDTAB
0
TABLE
2
LAYER
5
2
100
AcDbSymbolTable
70
2
0
LAYER
5
50
100
AcDbSymbolTableRecord
100
AcDbLayerTableRecord
2
0
70
0
6
CONTINUOUS
0
ENDTAB
0
TABLE
2
STYLE
5
3
100
AcDbSymbolTable
70
1
0
STYLE
5
11
100
AcDbSymbolTableRecord
100
AcDbTextStyleTableRecord
2
STANDARD
70
0
0
ENDTAB
0
TABLE
2
VIEW
5
6
100
AcDbSymbolTable
70
0
0
ENDTAB
0
TABLE
2
UCS
5
7
100
AcDbSymbolTable
70
0
0
ENDTAB
0
TABLE
2
APPID
5
9
100
AcDbSymbolTable
70
2
0
APPID
5
12
100
AcDbSymbolTableRecord
100
AcDbRegAppTableRecord
2
ACAD
70
0
0
ENDTAB
0
TABLE
2
DIMSTYLE
5
A
100
AcDbSymbolTable
70
1
0
ENDTAB
0
TABLE
2
BLOCK_RECORD
5
1
100
AcDbSymbolTable
70
1
0
BLOCK_RECORD
5
1F
100
AcDbSymbolTableRecord
100
AcDbBlockTableRecord
2
*MODEL_SPACE
0
BLOCK_RECORD
5
1B
100
AcDbSymbolTableRecord
100
AcDbBlockTableRecord
2
*PAPER_SPACE
0
ENDTAB
0
ENDSEC
0
SECTION
2
BLOCKS
0
BLOCK
5
20
100
AcDbEntity
100
AcDbBlockBegin
2
*MODEL_SPACE
0
ENDBLK
5
21
100
AcDbEntity
100
AcDbBlockEnd
0
BLOCK
5
1C
100
AcDbEntity
100
AcDbBlockBegin
2
*PAPER_SPACE
0
ENDBLK
5
1D
100
AcDbEntity
100
AcDbBlockEnd
0
ENDSEC
0
SECTION
2
ENTITIES
0
LWPOLYLINE
5
100
100
AcDbEntity
8
0
100
AcDbPolyline
90
82
70
1
43
0.0
10
-176.95969350986496
20
-33.695499055637924
42
0.41421356237225698
10
-176.41069091080152
20
-31.646451436322835
10
-177.8028596644964
20
-29.235240915480205
42
-0.41421366382672897
10
-177.61985864815364
20
-28.552224955776726
10
-177.57655877727714
20
-28.527224783235937
42
0.41421366382677433
10
-176.47855271091424
20
-24.42912914330412
10
-182.47873297378879
20
-14.036927954769197
42
0.4142135623730529
10
-186.57682821241764
20
-12.938922756637091
10
-187.18303993020248
20
-13.288933261455307
42
-0.41421356237306056
10
-187.8660558033074
20
-13.105932395099922
10
-188.19106555766393
20
-12.543021514503902
42
0.41421356237309886
10
-191.05973222470439
20
-11.774417875811508
10
-191.5360414314132
20
-12.049426129527081
42
-0.41421356237308604
10
-192.2190573045182
20
-11.866425263171722
10
-192.56906780924152
20
-11.260213545547311
42
0.41421356237308737
10
-196.66716304786976
20
-10.162208347415662
10
-203.59529696355284
20
-14.162328401412939
42
0.41421356237310281
10
-204.69330216168476
20
-18.260423640042166
10
-204.66830141134687
20
-18.303724477015887
42
-0.41421356237310758
10
-204.85130227770225
20
-18.986740350120723
10
-205.18641332936647
20
-19.180224548664185
42
-0.099124638188905143
10
-205.74435186821475
20
-19.368849851357975
10
-215.52591012364047
20
-20.631835119913319
42
-0.41421356237310247
10
-216.0858215846938
20
-20.199979639710619
10
-216.09222438373664
20
-20.150391292646784
42
0.41421356237311335
10
-219.45169315005808
20
-17.559258411429653
10
-231.35289644512963
20
-19.095930181637705
42
0.41421356237309043
10
-233.94402932634566
20
-22.455398947957885
10
-233.93762652730285
20
-22.504987295022811
42
-0.41421356237308177
10
-234.3694820075055
20
-23.064898756076168
10
-242.996248820679
20
-24.178778479100544
42
0.20592414080608493
10
-244.01616498980314
20
-24.78265535683121
10
-254.29639581354229
20
-38.880883828509745
42
-0.23961732583571588
10
-254.70038719614817
20
-39.086292650383541
10
-265.88269109238911
20
-39.086486421687695
42
-0.41421356237310802
10
-266.3826997565082
20
-38.586495085956891
10
-266.38270062292759
20
-38.53649508596466
42
0.41421356237311019
10
-269.38275260764226
20
-35.536547071579882
10
-293.3827526040389
20
-35.536962952899493
42
0.41421356237309198
10
-296.38270061842354
20
-38.537014937614032
10
-296.3826997520041
20
-38.58701493760654
42
-0.41421356237309243
10
-296.88269108773488
20
-39.087023601725626
10
-308.53269108598579
20
-39.087225477449543
42
0.41421356237309992
10
-311.18264516535896
20
-41.737271397280715
10
-311.18244328963499
20
-53.387271395531613
42
-0.41421356237309509
10
-311.68243462536577
20
-53.887280059650706
10
-311.73243462535828
20
-53.887280926070119
42
0.41421356237308982
10
-314.73238263974292
20
-56.887332910784671
10
-314.73196675842325
20
-80.887332907181388
42
0.41421356237310542
10
-311.7319147737087
20
-83.887280921566003
10
-311.68191477371624
20
-83.887280055146576
42
-0.41421356237309509
10
-311.18190610959709
20
-84.387271390877387
10
-311.18170423387323
20
-96.037271389128279
42
0.41421356237310286
10
-308.53165831404203
20
-98.687225468501367
10
-302.2316583149879
20
-98.68711629965496
42
-0.41421356237309509
10
-301.7316496508688
20
-99.187107635385729
10
-301.73164878444942
20
-99.237107635378266
42
0.41421356237309681
10
-298.7315967997348
20
-102.23705564976287
10
-274.23159680343502
20
-102.23663110424908
42
-0.41421356236671636
10
-273.73158813932133
20
-102.73662243996354
10
-273.7315664788087
20
-103.98662244003084
42
0.4142135623667112
10
-270.73151449409414
20
-106.98657045435012
10
-254.23151449657462
20
-106.98628453594284
42
0.41421356237222096
10
-253.73152316084386
20
-106.48627587182526
10
-253.73152619331131
20
-106.31127587167526
42
-0.41421356237222096
10
-253.23153485758047
20
-105.81126720755763
10
-233.53153486053554
20
-105.81092583830781
42
-0.41421356237309509
10
-233.03152619641645
20
-106.31091717403859
10
-233.03152316394852
20
-106.48591717418552
42
0.41421356237306384
10
-232.53151449982943
20
-106.98590850991623
10
-207.03151450365789
20
-106.98546663601408
42
0.41421356237308637
10
-204.03156648927325
20
-103.98541465129951
10
-204.03159118222661
20
-102.56041465134032
42
-0.4142135623730881
10
-202.53161717503428
20
-101.06038865898307
10
-196.63161717592007
20
-101.06028642149198
42
0.41421356237309853
10
-195.13164316872775
20
-99.560260429134701
10
-195.13248130973122
20
-51.192172874998576
42
-0.26794919243112286
10
-192.63255634422902
20
-46.8620025357557
10
-190.40988058165524
20
-45.578688731547039
42
0.26794919243112575
10
-189.40991059545436
20
-43.846620595849899
10
-189.4099419246175
20
-42.038653080206473
42
-0.26794919243038606
10
-188.40997193842142
20
-40.306584944512103
0
LWPOLYLINE
5
101
100
AcDbEntity
8
0
100
AcDbPolyline
90
8
70
1
43
0.0
10
-199.78515948157505
20
-25.761265954914279
42
0.41421356237283813
10
-199.96816034792704
20
-26.444281828019747
10
-193.46796526013355
20
-37.702499440975096
42
0.41421356237258905
10
-192.78494938702866
20
-37.885500307327888
10
-181.52673177405975
20
-31.385305219552496
42
0.41421356237125728
10
-181.34373090770467
20
-30.702289346449831
10
-187.84392599542613
20
-19.444071733414596
42
0.41421356237565282
10
-188.52694186853412
20
-19.261070867059054
0
LWPOLYLINE
5
102
100
AcDbEntity
8
0
100
AcDbPolyline
90
8
70
1
43
0.0
10
-269.38230900090122
20
-61.136547067736366
42
0.41421356237312101
10
-268.88230033678207
20
-61.636538403467128
10
-255.88230033873376
20
-61.636313134418984
42
0.41421356237308982
10
-255.382309003003
20
-61.136304470299898
10
-255.38253427205126
20
-48.136304472251652
42
0.41421356237305862
10
-255.88254293617035
20
-47.636313136520897
10
-268.88254293421858
20
-47.636538405569055
42
0.41421356237308982
10
-269.38253426994936
20
-48.136547069688135
0
LWPOLYLINE
5
103
100
AcDbEntity
8
0
100
AcDbPolyline
90
8
70
1
43
0.0
10
-236.88192994728627
20
-83.010983891831742
42
0.41421356237309509
10
-236.38193861155548
20
-82.510975227712635
10
-236.3821638806036
20
-69.510975229664467
42
0.41421356237308982
10
-236.88217254472272
20
-69.010983893933698
10
-249.88217254277092
20
-69.011209162981814
42
0.41421356237309509
10
-250.3821638785017
20
-69.511217827100907
10
-250.38193860945356
20
-82.511217825149117
42
0.41421356237309509
10
-249.88192994533446
20
-83.011209160879886
0
LWPOLYLINE
5
104
100
AcDbEntity
8
0
100
AcDbPolyline
90
8
70
1
43
0.0
10
-230.88188446116772
20
-85.635879921107744
42
0.41421356237307427
10
-231.38187579689853
20
-86.135888585226823
10
-231.38165052785038
20
-99.135888583275062
42
0.41421356237306384
10
-230.88164186373126
20
-99.635879919005816
10
-217.88164186568306
20
-99.635654649957687
42
0.41421356237309509
10
-217.38165052995228
20
-99.135645985838579
10
-217.3818757990004
20
-86.135645987790369
42
0.41421356237306384
10
-217.88188446311949
20
-85.635654652059614
0
LWPOLYLINE
5
105
100
AcDbEntity
8
0
100
AcDbPolyline
90
8
70
1
43
0.0
10
-307.38173282628446
20
-94.387205541500407
42
0.4142135623730534
10
-306.88172416216537
20
-94.887196877231176
10
-293.88172416411714
20
-94.88697160818306
42
0.4142135623730534
10
-293.38173282838636
20
-94.386962944063981
10
-293.38195809743451
20
-81.3869629460157
42
0.4142135623730534
10
-293.8819667615536
20
-80.886971610284945
10
-306.88196675960182
20
-80.887196879333118
42
0.4142135623730534
10
-307.38195809533261
20
-81.387205543452197
0
LWPOLYLINE
5
106
100
AcDbEntity
8
0
100
AcDbPolyline
90
8
70
1
43
0.0
10
-293.38228733681251
20
-62.386962948868316
42
0.41421356237308982
10
-293.8822960009316
20
-61.886971613137554
10
-306.88229599897983
20
-61.887196882185698
42
0.41421356237309509
10
-307.38228733471061
20
-62.387205546304791
10
-307.38206206566252
20
-75.387205544353009
42
0.41421356237309509
10
-306.88205340154343
20
-75.887196880083778
10
-293.88205340349521
20
-75.886971611035634
42
0.41421356237308982
10
-293.38206206776442
20
-75.386962946916555
0
LWPOLYLINE
5
107
100
AcDbEntity
8
0
100
AcDbPolyline
90
8
70
1
43
0.0
10
-250.38160937007549
20
-101.51121782229659
42
0.4142135623730534
10
-249.8816007059564
20
-102.01120915802734
10
-236.88160070790818
20
-102.01098388897918
42
0.41421356237309509
10
-236.38160937217742
20
-101.51097522486009
10
-236.38183464122551
20
-88.510975226811851
42
0.41421356237306384
10
-236.8818433053446
20
-88.010983891081082
10
-249.88184330339288
20
-88.011209160129212
42
0.41421356237307427
10
-250.38183463912361
20
-88.511217824248334
0
LWPOLYLINE
5
108
100
AcDbEntity
8
0
100
AcDbPolyline
90
8
70
1
43
0.0
10
-230.88221370054572
20
-66.635879923960374
42
0.41421356237308982
10
-231.3822050362765
20
-67.135888588079467
10
-231.38197976722836
20
-80.135888586127663
42
0.41421356237307427
10
-230.88197110310929
20
-80.635879921858447
10
-217.8819711050611
20
-80.635654652810302
42
0.41421356237309509
10
-217.38197976933034
20
-80.135645988691209
10
-217.38220503837849
20
-67.135645990643013
42
0.41421356237308982
10
-217.88221370249758
20
-66.635654654912258
0
LWPOLYLINE
5
109
100
AcDbEntity
8
0
100
AcDbPolyline
90
8
70
1
43
0.0
10
-287.88262524121052
20
-42.886867645660232
42
0.41421356237309509
10
-288.3826165769413
20
-43.386876309779325
10
-288.38239130789316
20
-56.386876307827549
42
0.41421356237309509
10
-287.88238264377406
20
-56.886867643558304
10
-274.88238264572584
20
-56.886642374510181
42
0.41421356237309509
10
-274.38239130999506
20
-56.386633710391088
10
-274.3826165790432
20
-43.386633712342864
42
0.41421356237309509
10
-274.88262524316229
20
-42.886642376612095
0
LWPOLYLINE
5
110
100
AcDbEntity
8
0
100
AcDbPolyline
90
8
70
1
43
0.0
10
-211.88258409769867
20
-45.260550687791444
42
0.41421356237305862
10
-212.38257543342942
20
-45.760559351910537
10
-212.38235016438125
20
-58.760559349958761
42
0.41421356237306384
10
-211.88234150026219
20
-59.26055068568953
10
-198.88234150221396
20
-59.260325416641408
42
0.41421356237308982
10
-198.38235016648321
20
-58.760316752522314
10
-198.38257543553135
20
-45.760316754474076
42
0.414213562373069
10
-198.88258409965039
20
-45.260325418743307
0
LWPOLYLINE
5
111
100
AcDbEntity
8
0
100
AcDbPolyline
90
8
70
1
43
0.0
10
-221.00558160405166
20
-27.231804312809246
42
0.41421356237150775
10
-221.35912438316291
20
-27.844182874922243
10
-217.99425920416479
20
-40.401160310880499
42
0.41421356237470042
10
-217.38188064204843
20
-40.754703089993647
10
-204.82490320610933
20
-37.38983791092722
42
0.41421356237204654
10
-204.47136042699833
20
-36.777459348813288
10
-207.83622560602069
20
-24.220481912861729
42
0.41421356237412293
10
-208.44860416813674
20
-23.866939133749515
0
LWPOLYLINE
5
112
100
AcDbEntity
8
0
100
AcDbPolyline
90
8
70
1
43
0.0
10
-236.88225918666427
20
-64.010983894684358
42
0.41421356237308982
10
-236.38226785093349
20
-63.510975230565265
10
-236.38249311998158
20
-50.510975232517019
42
0.41421356237311585
10
-236.88250178410073
20
-50.010983896786257
10
-249.88250178214895
20
-50.011209165834387
42
0.41421356237309509
10
-250.38249311787973
20
-50.51121782995348
10
-250.38226784883162
20
-63.511217828001719
42
0.41421356237309509
10
-249.8822591847125
20
-64.011209163732488
0
LWPOLYLINE
5
113
100
AcDbEntity
8
0
100
AcDbPolyline
90
8
70
1
43
0.0
10
-269.38197976152316
20
-80.136547064883757
42
0.41421356237310542
10
-268.88197109740406
20
-80.63653840061454
10
-255.88197109935589
20
-80.636313131566411
42
0.41421356237309509
10
-255.38197976362511
20
-80.136304467447303
10
-255.38220503267323
20
-67.136304469399121
42
0.41421356237309509
10
-255.88221369679232
20
-66.636313133668352
10
-268.88221369484052
20
-66.636538402716468
42
0.41421356237308982
10
-269.3822050305713
20
-67.136547066835547
0
LWPOLYLINE
5
114
100
AcDbEntity
8
0
100
AcDbPolyline
90
8
70
1
43
0.0
10
-212.38169168562519
20
-96.760559344253579
42
0.41421356237306384
10
-211.88168302150609
20
-97.260550679984362
10
-198.88168302345787
20
-97.260325410936233
42
0.41421356237309509
10
-198.38169168772708
20
-96.760316746817125
10
-198.38191695677523
20
-83.760316748768915
42
0.41421356237309509
10
-198.88192562089432
20
-83.260325413038146
10
-211.88192561894252
20
-83.260550682086304
42
0.41421356237307427
10
-212.38191695467333
20
-83.760559346205383
0
LWPOLYLINE
5
115
100
AcDbEntity
8
0
100
AcDbPolyline
90
8
70
1
43
0.0
10
-274.88172416696972
20
-94.886642368805028
42
0.41421356237308465
10
-274.38173283123893
20
-94.386633704685948
10
-274.38195810028708
20
-81.386633706637667
42
0.41421356237307427
10
-274.88196676440617
20
-80.886642370906941
10
-287.8819667624544
20
-80.886867639955057
42
0.41421356237307427
10
-288.38195809818518
20
-81.386876304074178
10
-288.38173282913704
20
-94.386876302122403
42
0.41421356237309509
10
-287.88172416501794
20
-94.886867637853172
0
LWPOLYLINE
5
116
100
AcDbEntity
8
0
100
AcDbPolyline
90
8
70
1
43
0.0
10
-293.38261657619057
20
-43.386962951720903
42
0.41421356237309509
10
-293.88262524030966
20
-42.886971615990134
10
-306.88262523835795
20
-42.887196885038293
42
0.41421356237309509
10
-307.38261657408873
20
-43.387205549157386
10
-307.38239130504053
20
-56.387205547205596
42
0.41421356237309509
10
-306.88238264092143
20
-56.887196882936365
10
-293.88238264287321
20
-56.886971613888221
42
0.41421356237308982
10
-293.38239130714248
20
-56.386962949769135
0
LWPOLYLINE
5
117
100
AcDbEntity
8
0
100
AcDbPolyline
90
8
70
1
43
0.0
10
-269.38165052214509
20
-99.136547062031156
42
0.41421356237309509
10
-268.881641858026
20
-99.636538397761925
10
-255.88164185997783
20
-99.63631312871378
42
0.41421356237309509
10
-255.38165052424705
20
-99.136304464594673
10
-255.38187579329517
20
-86.136304466546505
42
0.4142135623730534
10
-255.88188445741426
20
-85.636313130815722
10
-268.88188445546245
20
-85.636538399863866
42
0.41421356237309509
10
-269.38187579119324
20
-86.13654706398296
0
LWPOLYLINE
5
118
100
AcDbEntity
8
0
100
AcDbPolyline
90
8
70
1
43
0.0
10
-198.38224619615323
20
-64.760316751621502
42
0.41421356237311585
10
-198.88225486027238
20
-64.260325415890748
10
-211.88225485832061
20
-64.260550684938835
42
0.41421356237308465
10
-212.38224619405139
20
-64.760559349057942
10
-212.38202092500327
20
-77.760559347106209
42
0.41421356237307944
10
-211.88201226088412
20
-78.260550682836964
10
-198.88201226283593
20
-78.260325413788834
42
0.41421356237308982
10
-198.38202092710515
20
-77.760316749669741
0
LWPOLYLINE
5
119
100
AcDbEntity
8
0
100
AcDbPolyline
90
8
70
1
43
0.0
10
-274.38228733966514
20
-62.38663370949017
42
0.41421356237309509
10
-274.88229600378423
20
-61.8866423737594
10
-287.88229600183246
20
-61.886867642807601
42
0.41421356237309509
10
-288.38228733756324
20
-62.386876306926695
10
-288.3820620685151
20
-75.386876304974948
42
0.41421356237309509
10
-287.882053404396
20
-75.886867640705717
10
-274.88205340634772
20
-75.886642371657587
42
0.41421356237308982
10
-274.38206207061694
20
-75.386633707538493
0
LWPOLYLINE
5
120
100
AcDbEntity
8
0
100
AcDbPolyline
90
8
70
1
43
0.0
10
-230.88254293992384
20
-47.635879926812976
42
0.41421356237305862
10
-231.38253427565462
20
-48.135888590932069
10
-231.38230900660648
20
-61.135888588980293
42
0.41421356237307944
10
-230.88230034248735
20
-61.63587992471107
10
-217.8823003444391
20
-61.635654655662918
42
0.4142135623730534
10
-217.38230900870832
20
-61.135645991543832
10
-217.38253427775646
20
-48.135645993495586
42
0.41421356237308465
10
-217.88254294187561
20
-47.63565465776481
0
LWPOLYLINE
5
121
100
AcDbEntity
8
0
100
AcDbPolyline
90
8
70
1
43
0.0
10
-240.38288356262669
20
-27.979044549453207
42
0.41421356237305601
10
-240.88287489835747
20
-28.47905321357231
10
-240.88264962930933
20
-41.479053211620553
42
0.41421356237305862
10
-240.38264096519021
20
-41.979044547351315
10
-227.38264096714201
20
-41.978819278303177
42
0.41421356237308982
10
-226.88264963141123
20
-41.478810614184091
10
-226.88287490045937
20
-28.478810616135853
42
0.41421356237309243
10
-227.38288356457846
20
-27.978819280405084
0
ENDSEC
0
SECTION
2
OBJECTS
0
DICTIONARY
5
C
100
AcDbDictionary
3
ACAD_GROUP
350
D
3
ACAD_MLINESTYLE
350
17
0
DICTIONARY
5
D
100
AcDbDictionary
0
DICTIONARY
5
1A
330
C
100
AcDbDictionary
0
DICTIONARY
5
17
100
AcDbDictionary
0
ENDSEC
0
EOF
