0
SECTION
2
HEADER
9
$INSUNITS
70
4
9
$ACADVER
1
AC1014
9
$HANDSEED
5
FFFF
0
ENDSEC
0
SECTION
2
TABLES
0
TABLE
2
VPORT
5
8
100
AcDbSymbolTable
0
ENDTAB
0
TABLE
2
LTYPE
5
5
100
AcDbSymbolTable
0
LTYPE
5
14
100
AcDbSymbolTableRecord
100
AcDbLinetypeTableRecord
2
BYBLOCK
70
0
0
LTYPE
5
15
100
AcDbSymbolTableRecord
100
AcDbLinetypeTableRecord
2
BYLAYER
70
0
0
ENDTAB
0
TABLE
2
LAYER
5
2
100
AcDbSymbolTable
70
2
0
LAYER
5
50
100
AcDbSymbolTableRecord
100
AcDbLayerTableRecord
2
0
70
0
6
CONTINUOUS
0
ENDTAB
0
TABLE
2
STYLE
5
3
100
AcDbSymbolTable
70
1
0
STYLE
5
11
100
AcDbSymbolTableRecord
100
AcDbTextStyleTableRecord
2
STANDARD
70
0
0
ENDTAB
0
TABLE
2
VIEW
5
6
100
AcDbSymbolTable
70
0
0
ENDTAB
0
TABLE
2
UCS
5
7
100
AcDbSymbolTable
70
0
0
ENDTAB
0
TABLE
2
APPID
5
9
100
AcDbSymbolTable
70
2
0
APPID
5
12
100
AcDbSymbolTableRecord
100
AcDbRegAppTableRecord
2
ACAD
70
0
0
ENDTAB
0
TABLE
2
DIMSTYLE
5
A
100
AcDbSymbolTable
70
1
0
ENDTAB
0
TABLE
2
BLOCK_RECORD
5
1
100
AcDbSymbolTable
70
1
0
BLOCK_RECORD
5
1F
100
AcDbSymbolTableRecord
100
AcDbBlockTableRecord
2
*MODEL_SPACE
0
BLOCK_RECORD
5
1B
100
AcDbSymbolTableRecord
100
AcDbBlockTableRecord
2
*PAPER_SPACE
0
ENDTAB
0
ENDSEC
0
SECTION
2
BLOCKS
0
BLOCK
5
20
100
AcDbEntity
100
AcDbBlockBegin
2
*MODEL_SPACE
0
ENDBLK
5
21
100
AcDbEntity
100
AcDbBlockEnd
0
BLOCK
5
1C
100
AcDbEntity
100
AcDbBlockBegin
2
*PAPER_SPACE
0
ENDBLK
5
1D
100
AcDbEntity
100
AcDbBlockEnd
0
ENDSEC
0
SECTION
2
ENTITIES
0
LWPOLYLINE
5
100
100
AcDbEntity
8
0
100
AcDbPolyline
90
82
70
1
43
0.0
10
-149.05500109196993
20
-31.64621442131487
42
0.41421356237228302
10
-148.50596298629605
20
-33.6952525269921
10
-137.05556999999521
20
-40.306140000002756
42
-0.26794919243038723
10
-136.05557000000002
20
-42.038190807568853
10
-136.05557000000002
20
-43.846158323483706
42
0.26794919243112308
10
-135.05557000000002
20
-45.578209131052589
10
-132.83287200000001
20
-46.861484419679833
42
-0.26794919243111953
10
-130.33287200000001
20
-51.191611438602038
10
-130.33287200000001
20
-99.559698999999995
42
0.41421356237309509
10
-128.83287200000001
20
-101.05969899999999
10
-122.93287199999997
20
-101.05969899999999
42
-0.41421356237308121
10
-121.43287199999997
20
-102.55969899999999
10
-121.43287199999997
20
-103.98469900017312
42
0.41421356237309509
10
-118.43287199999997
20
-106.98469900017314
10
-92.932871999999946
20
-106.98469900017318
42
0.41421356237309509
10
-92.432871999999975
20
-106.48469900017321
10
-92.432871999999975
20
-106.30969900000002
42
-0.41421356237307427
10
-91.932871999999975
20
-105.80969900000001
10
-72.232871999997343
20
-105.80969899999999
42
-0.41421356237223655
10
-71.732871999997329
20
-106.30969899999849
10
-71.732871999996803
20
-106.48469900017476
42
0.41421356237221058
10
-71.232871999996803
20
-106.98469900017326
10
-54.732872
20
-106.98469900017329
42
0.41421356236671203
10
-51.732871999999965
20
-103.98469900023866
10
-51.732871999972765
20
-102.73469899998368
42
-0.41421356236672152
10
-51.232871999978201
20
-102.23469900000001
10
-26.732872000000008
20
-102.23469900000001
42
0.41421356237309293
10
-23.732872000000004
20
-99.23469900000002
10
-23.732872000000004
20
-99.184698999999981
42
-0.41421356237309509
10
-23.232871999999997
20
-98.684698999999966
10
-16.932872000000003
20
-98.684698999999966
42
0.41421356237309509
10
-14.282871999999998
20
-96.034698999999961
10
-14.28287199999999
20
-84.384699000000012
42
-0.41421356237309109
10
-13.782871999999973
20
-83.884698999999983
10
-13.732871999999992
20
-83.884698999999983
42
0.41421356237309509
10
-10.732872000000002
20
-80.884698999999998
10
-10.732871999999993
20
-56.884698999999983
42
0.41421356237309509
10
-13.732871999999999
20
-53.884698999999983
10
-13.782871999999999
20
-53.884698999999983
42
-0.41421356237309509
10
-14.282871999999998
20
-53.384698999999991
10
-14.282871999999998
20
-41.734698999999999
42
0.41421356237309509
10
-16.932872
20
-39.084698999999993
10
-28.582872000000012
20
-39.084698999999993
42
-0.41421356237309509
10
-29.082872000000009
20
-38.584698999999993
10
-29.082872000000009
20
-38.534698999999989
42
0.41421356237309509
10
-32.082872000000016
20
-35.534698999999989
10
-56.082872000000002
20
-35.534699000000018
42
0.41421356237310625
10
-59.082872000000037
20
-38.534699000000167
10
-59.082872000000037
20
-38.584698999999901
42
-0.41421356237311319
10
-59.582872000000044
20
-39.084698999999922
10
-70.76517589791986
20
-39.084699000000015
42
-0.2396173258357161
10
-71.169170839868926
20
-38.879297178676623
10
-81.449645961642176
20
-24.781246848946452
42
0.20592414080609589
10
-82.469572594826218
20
-24.177387644809897
10
-91.096358708444882
20
-23.063657409918012
42
-0.41421356237308826
10
-91.528223890945938
20
-22.50375343230818
10
-91.521821951190191
20
-22.454164974300515
42
0.41421356237309637
10
-94.113013046196571
20
-19.094741108641461
10
-106.01424296752651
20
-17.558275567336263
42
0.41421356237311002
10
-109.37366683318677
20
-20.149466662343709
10
-109.38006877294251
20
-20.199055120350291
42
-0.41421356237308471
10
-109.93997275055234
20
-20.630920302851372
10
-119.72155289000864
20
-19.36810453312545
42
-0.099124638188913095
10
-120.27949469734565
20
-19.17948889863564
10
-120.6146091017289
20
-18.986010507055649
42
-0.4142135623731138
10
-120.79762180362104
20
-18.302997805163422
10
-120.77262180362064
20
-18.259696534973511
42
0.41421356237309603
10
-121.87069801497337
20
-14.161620323620014
10
-128.79890124524985
20
-10.161620323618106
42
0.41421356237308898
10
-132.89697745660243
20
-11.25969653497056
10
-133.24697745660114
20
-11.865914317621915
42
-0.41421356237311474
10
-133.92999015849352
20
-12.048927019514053
10
-134.40630413058062
20
-11.773927019510673
42
0.41421356237310486
10
-137.27495747852811
20
-12.542580367457631
10
-137.59995747849752
20
-13.105496879864379
42
-0.41421356237305512
10
-138.28297018038973
20
-13.288509581756555
10
-138.88918796320158
20
-12.938509581662938
42
0.41421356237305496
10
-142.9872641745547
20
-14.036585793015867
10
-148.9872643564307
20
-24.428890953444107
42
0.41421366382676983
10
-147.88918727684003
20
-28.526967566085165
10
-147.84588697275734
20
-28.551966988305225
42
-0.41421366382672953
10
-147.6628741208763
20
-29.234979776793473
0
LWPOLYLINE
5
101
100
AcDbEntity
8
0
100
AcDbPolyline
90
8
70
1
43
0.0
10
-125.49762180359633
20
-26.4436366008146
42
0.41421356237284201
10
-125.68063450548513
20
-25.760623898921761
10
-136.93896475474043
20
-19.260623898809023
42
0.41421356237562162
10
-137.62197745663576
20
-19.443636600701364
10
-144.12197745661473
20
-30.70196684995096
42
0.41421356237127449
10
-143.93896475472286
20
-31.384979551841013
10
-132.68063450553962
20
-37.884979551873911
42
0.41421356237258328
10
-131.99762180364732
20
-37.701966849984323
0
LWPOLYLINE
5
102
100
AcDbEntity
8
0
100
AcDbPolyline
90
8
70
1
43
0.0
10
-56.582872000000023
20
-61.634698999999998
42
0.41421356237310542
10
-56.082872000000023
20
-61.134698999999998
10
-56.082872000000009
20
-48.134699000000005
42
0.41421356237309509
10
-56.582872000000009
20
-47.634699000000005
10
-69.582872000000023
20
-47.634698999999983
42
0.41421356237307427
10
-70.082872000000023
20
-48.134698999999976
10
-70.082872000000165
20
-61.134698999999991
42
0.41421356237310542
10
-69.582872000000165
20
-61.634698999999998
0
LWPOLYLINE
5
103
100
AcDbEntity
8
0
100
AcDbPolyline
90
8
70
1
43
0.0
10
-89.082871999999966
20
-82.509698999999983
42
0.41421356237309509
10
-88.582871999999952
20
-83.009698999999983
10
-75.582871999999981
20
-83.009698999999983
42
0.41421356237308982
10
-75.082871999999981
20
-82.509698999999983
10
-75.082871999999981
20
-69.509698999999983
42
0.41421356237309509
10
-75.582871999999981
20
-69.009698999999983
10
-88.582871999999952
20
-69.009698999999998
42
0.41421356237308982
10
-89.082871999999966
20
-69.509698999999998
0
LWPOLYLINE
5
104
100
AcDbEntity
8
0
100
AcDbPolyline
90
8
70
1
43
0.0
10
-94.082871999999981
20
-86.134699000000012
42
0.41421356237307427
10
-94.582871999999995
20
-85.634699000000012
10
-107.58287199999998
20
-85.634698999999998
42
0.41421356237307427
10
-108.08287199999998
20
-86.134698999999998
10
-108.08287199999998
20
-99.134698999999969
42
0.41421356237307427
10
-107.58287199999998
20
-99.634698999999983
10
-94.582871999999995
20
-99.634698999999998
42
0.41421356237307427
10
-94.082871999999981
20
-99.134698999999983
0
LWPOLYLINE
5
105
100
AcDbEntity
8
0
100
AcDbPolyline
90
8
70
1
43
0.0
10
-18.582871999999998
20
-94.884698999999998
42
0.4142135623730534
10
-18.082872000000009
20
-94.384699000000012
10
-18.082871999999998
20
-81.384699000000026
42
0.41421356237305601
10
-18.582871999999998
20
-80.884699000000012
10
-31.582872000000002
20
-80.884698999999983
42
0.4142135623730378
10
-32.082872000000002
20
-81.384698999999969
10
-32.082872000000002
20
-94.384699000000012
42
0.41421356237304296
10
-31.582872000000005
20
-94.884698999999998
0
LWPOLYLINE
5
106
100
AcDbEntity
8
0
100
AcDbPolyline
90
8
70
1
43
0.0
10
-31.582872000000044
20
-61.884698999999998
42
0.41421356237307944
10
-32.082872000000044
20
-62.384698999999983
10
-32.082872000000016
20
-75.384698999999983
42
0.41421356237309759
10
-31.582872000000009
20
-75.884698999999983
10
-18.582872000000016
20
-75.884698999999983
42
0.41421356237309892
10
-18.082872000000009
20
-75.384698999999983
10
-18.08287200000003
20
-62.384698999999991
42
0.41421356237309509
10
-18.58287200000003
20
-61.884698999999998
0
LWPOLYLINE
5
107
100
AcDbEntity
8
0
100
AcDbPolyline
90
8
70
1
43
0.0
10
-75.582871999999995
20
-102.00969900000003
42
0.41421356237305862
10
-75.082871999999995
20
-101.50969900000004
10
-75.082871999999995
20
-88.509699000000012
42
0.4142135623730534
10
-75.582871999999995
20
-88.009698999999998
10
-88.582871999999995
20
-88.009698999999998
42
0.41421356237307427
10
-89.082872000000009
20
-88.509699000000012
10
-89.082871999999966
20
-101.509699
42
0.41421356237309509
10
-88.582871999999952
20
-102.00969900000001
0
LWPOLYLINE
5
108
100
AcDbEntity
8
0
100
AcDbPolyline
90
8
70
1
43
0.0
10
-94.082872000000009
20
-67.134699000000026
42
0.41421356237308982
10
-94.582872000000009
20
-66.634699000000026
10
-107.58287199999995
20
-66.63469900000004
42
0.41421356237308982
10
-108.08287199999995
20
-67.13469900000004
10
-108.08287199999995
20
-80.134699000000012
42
0.41421356237309509
10
-107.58287199999995
20
-80.634699000000012
10
-94.582872000000009
20
-80.634699000000012
42
0.41421356237309509
10
-94.082872000000009
20
-80.134699000000012
0
LWPOLYLINE
5
109
100
AcDbEntity
8
0
100
AcDbPolyline
90
8
70
1
43
0.0
10
-37.082872000000009
20
-43.384698999999991
42
0.41421356237309509
10
-37.582872000000009
20
-42.884698999999991
10
-50.582871999999995
20
-42.884698999999991
42
0.41421356237309509
10
-51.082871999999995
20
-43.384698999999991
10
-51.082872000000009
20
-56.384698999999983
42
0.41421356237309509
10
-50.582872000000016
20
-56.884698999999983
10
-37.582872000000009
20
-56.884698999999976
42
0.41421356237308726
10
-37.082872000000016
20
-56.384698999999983
0
LWPOLYLINE
5
110
100
AcDbEntity
8
0
100
AcDbPolyline
90
8
70
1
43
0.0
10
-113.08287200000001
20
-45.759698999999976
42
0.41421356237305862
10
-113.58287199999999
20
-45.259698999999983
10
-126.58287200000001
20
-45.259698999999983
42
0.41421356237308982
10
-127.08287200000001
20
-45.759698999999976
10
-127.08287200000001
20
-58.759698999999983
42
0.41421356237308982
10
-126.58287200000001
20
-59.259698999999983
10
-113.58287200000001
20
-59.259698999999976
42
0.41421356237307944
10
-113.08287200000002
20
-58.759698999999976
0
LWPOLYLINE
5
111
100
AcDbEntity
8
0
100
AcDbPolyline
90
8
70
1
43
0.0
10
-104.1066335135431
20
-27.843166976575617
42
0.41421356237151113
10
-104.46018690413479
20
-27.230794540881131
10
-117.01722264585487
20
-23.866146954507702
42
0.41421356237411971
10
-117.62959508155245
20
-24.219700345100357
10
-120.99424266788847
20
-36.776736086857113
42
0.41421356237206014
10
-120.64068927729707
20
-37.389108522552547
10
-108.08365353555276
20
-40.753756108932677
42
0.4142135623746967
10
-107.47128109985489
20
-40.400202718339088
0
LWPOLYLINE
5
112
100
AcDbEntity
8
0
100
AcDbPolyline
90
8
70
1
43
0.0
10
-89.082872000000009
20
-63.509698999999983
42
0.41421356237308982
10
-88.582871999999995
20
-64.009698999999983
10
-75.582871999999981
20
-64.009698999999983
42
0.41421356237309509
10
-75.082871999999981
20
-63.509698999999983
10
-75.082871999999981
20
-50.509698999999969
42
0.41421356237309509
10
-75.582871999999981
20
-50.009698999999969
10
-88.582871999999995
20
-50.009698999999976
42
0.41421356237310542
10
-89.082872000000009
20
-50.509698999999969
0
LWPOLYLINE
5
113
100
AcDbEntity
8
0
100
AcDbPolyline
90
8
70
1
43
0.0
10
-56.582872000000023
20
-80.634699000000012
42
0.41421356237310542
10
-56.08287200000003
20
-80.134699000000012
10
-56.082872000000023
20
-67.134699000000012
42
0.41421356237309509
10
-56.582872000000023
20
-66.634699000000012
10
-69.582872000000009
20
-66.63469900000004
42
0.41421356237309509
10
-70.082872000000009
20
-67.13469900000004
10
-70.082871999999981
20
-80.134699000000012
42
0.41421356237308982
10
-69.582871999999981
20
-80.634699000000012
0
LWPOLYLINE
5
114
100
AcDbEntity
8
0
100
AcDbPolyline
90
8
70
1
43
0.0
10
-113.58287200000001
20
-97.259698999999983
42
0.41421356237307427
10
-113.08287200000001
20
-96.759698999999983
10
-113.08287200000001
20
-83.759699000000012
42
0.41421356237307427
10
-113.58287200000001
20
-83.259699000000012
10
-126.58287200000001
20
-83.259699000000012
42
0.41421356237309509
10
-127.08287200000001
20
-83.759699000000012
10
-127.08287200000001
20
-96.759698999999983
42
0.41421356237309509
10
-126.58287200000001
20
-97.259698999999983
0
LWPOLYLINE
5
115
100
AcDbEntity
8
0
100
AcDbPolyline
90
8
70
1
43
0.0
10
-51.082872000000009
20
-94.384699000000012
42
0.41421356237308982
10
-50.582872000000016
20
-94.884699000000012
10
-37.582872000000009
20
-94.884699000000012
42
0.41421356237309243
10
-37.082872000000009
20
-94.384699000000012
10
-37.082872000000002
20
-81.384699000000026
42
0.41421356237305601
10
-37.582872000000009
20
-80.884699000000012
10
-50.582872000000016
20
-80.884699000000012
42
0.41421356237305862
10
-51.082872000000009
20
-81.384699000000012
0
LWPOLYLINE
5
116
100
AcDbEntity
8
0
100
AcDbPolyline
90
8
70
1
43
0.0
10
-31.582872000000023
20
-42.884698999999983
42
0.41421356237310281
10
-32.082872000000037
20
-43.384698999999983
10
-32.082872000000023
20
-56.384698999999976
42
0.41421356237309509
10
-31.582872000000023
20
-56.884698999999976
10
-18.582872000000002
20
-56.884698999999976
42
0.41421356237309509
10
-18.082872000000005
20
-56.384698999999976
10
-18.082872000000002
20
-43.384698999999998
42
0.41421356237309759
10
-18.582872000000002
20
-42.884698999999998
0
LWPOLYLINE
5
117
100
AcDbEntity
8
0
100
AcDbPolyline
90
8
70
1
43
0.0
10
-56.582872000000009
20
-99.634698999999998
42
0.41421356237308982
10
-56.082872000000009
20
-99.134698999999983
10
-56.08287200000003
20
-86.134699000000012
42
0.41421356237308982
10
-56.58287200000003
20
-85.634699000000012
10
-69.582871999999995
20
-85.634699000000026
42
0.41421356237305862
10
-70.082871999999995
20
-86.134699000000012
10
-70.082871999999995
20
-99.134698999999983
42
0.41421356237308982
10
-69.582871999999995
20
-99.634698999999998
0
LWPOLYLINE
5
118
100
AcDbEntity
8
0
100
AcDbPolyline
90
8
70
1
43
0.0
10
-126.58287200000001
20
-64.259698999999998
42
0.41421356237310542
10
-127.08287200000001
20
-64.759698999999983
10
-127.08287200000001
20
-77.759699000000012
42
0.41421356237308982
10
-126.58287200000001
20
-78.259699000000012
10
-113.58287200000001
20
-78.259699000000012
42
0.4142135623730534
10
-113.08287200000001
20
-77.759699000000012
10
-113.08287200000001
20
-64.759698999999969
42
0.41421356237305862
10
-113.58287200000001
20
-64.259698999999969
0
LWPOLYLINE
5
119
100
AcDbEntity
8
0
100
AcDbPolyline
90
8
70
1
43
0.0
10
-50.582872000000023
20
-61.884698999999884
42
0.41421356237309509
10
-51.082872000000023
20
-62.384698999999884
10
-51.082872000000094
20
-75.384698999999983
42
0.41421356237308982
10
-50.582872000000087
20
-75.884698999999983
10
-37.582872000000009
20
-75.884698999999983
42
0.41421356237308726
10
-37.082872000000016
20
-75.384698999999983
10
-37.082872000000009
20
-62.384698999999948
42
0.41421356237310281
10
-37.582872000000009
20
-61.884698999999955
0
LWPOLYLINE
5
120
100
AcDbEntity
8
0
100
AcDbPolyline
90
8
70
1
43
0.0
10
-94.082871999999981
20
-48.134699000000019
42
0.41421356237305862
10
-94.582871999999981
20
-47.634699000000026
10
-107.58287199999999
20
-47.634699000000005
42
0.41421356237305862
10
-108.08287200000001
20
-48.134699000000012
10
-108.08287200000001
20
-61.134699000000026
42
0.41421356237305862
10
-107.58287200000001
20
-61.634699000000026
10
-94.582871999999995
20
-61.634699000000026
42
0.4142135623730534
10
-94.082871999999981
20
-61.134699000000026
0
LWPOLYLINE
5
121
100
AcDbEntity
8
0
100
AcDbPolyline
90
8
70
1
43
0.0
10
-84.582871999999995
20
-28.477699000000008
42
0.41421356237305601
10
-85.082871999999995
20
-27.977698999999994
10
-98.082871999999981
20
-27.977699000000015
42
0.41421356237309243
10
-98.582871999999995
20
-28.477699000000012
10
-98.582871999999995
20
-41.47769900000003
42
0.41421356237308982
10
-98.082871999999981
20
-41.97769900000003
10
-85.082871999999995
20
-41.97769900000003
42
0.4142135623730534
10
-84.582871999999995
20
-41.47769900000003
0
ENDSEC
0
SECTION
2
OBJECTS
0
DICTIONARY
5
C
100
AcDbDictionary
3
ACAD_GROUP
350
D
3
ACAD_MLINESTYLE
350
17
0
DICTIONARY
5
D
100
AcDbDictionary
0
DICTIONARY
5
1A
330
C
100
AcDbDictionary
0
DICTIONARY
5
17
100
AcDbDictionary
0
ENDSEC
0
EOF
