0
SECTION
2
HEADER
9
$INSUNITS
70
4
9
$ACADVER
1
AC1014
9
$HANDSEED
5
FFFF
0
ENDSEC
0
SECTION
2
TABLES
0
TABLE
2
VPORT
5
8
100
AcDbSymbolTable
0
ENDTAB
0
TABLE
2
LTYPE
5
5
100
AcDbSymbolTable
0
LTYPE
5
14
100
AcDbSymbolTableRecord
100
AcDbLinetypeTableRecord
2
BYBLOCK
70
0
0
LTYPE
5
15
100
AcDbSymbolTableRecord
100
AcDbLinetypeTableRecord
2
BYLAYER
70
0
0
ENDTAB
0
TABLE
2
LAYER
5
2
100
AcDbSymbolTable
70
2
0
LAYER
5
50
100
AcDbSymbolTableRecord
100
AcDbLayerTableRecord
2
0
70
0
6
CONTINUOUS
0
ENDTAB
0
TABLE
2
STYLE
5
3
100
AcDbSymbolTable
70
1
0
STYLE
5
11
100
AcDbSymbolTableRecord
100
AcDbTextStyleTableRecord
2
STANDARD
70
0
0
ENDTAB
0
TABLE
2
VIEW
5
6
100
AcDbSymbolTable
70
0
0
ENDTAB
0
TABLE
2
UCS
5
7
100
AcDbSymbolTable
70
0
0
ENDTAB
0
TABLE
2
APPID
5
9
100
AcDbSymbolTable
70
2
0
APPID
5
12
100
AcDbSymbolTableRecord
100
AcDbRegAppTableRecord
2
ACAD
70
0
0
ENDTAB
0
TABLE
2
DIMSTYLE
5
A
100
AcDbSymbolTable
70
1
0
ENDTAB
0
TABLE
2
BLOCK_RECORD
5
1
100
AcDbSymbolTable
70
1
0
BLOCK_RECORD
5
1F
100
AcDbSymbolTableRecord
100
AcDbBlockTableRecord
2
*MODEL_SPACE
0
BLOCK_RECORD
5
1B
100
AcDbSymbolTableRecord
100
AcDbBlockTableRecord
2
*PAPER_SPACE
0
ENDTAB
0
ENDSEC
0
SECTION
2
BLOCKS
0
BLOCK
5
20
100
AcDbEntity
100
AcDbBlockBegin
2
*MODEL_SPACE
0
ENDBLK
5
21
100
AcDbEntity
100
AcDbBlockEnd
0
BLOCK
5
1C
100
AcDbEntity
100
AcDbBlockBegin
2
*PAPER_SPACE
0
ENDBLK
5
1D
100
AcDbEntity
100
AcDbBlockEnd
0
ENDSEC
0
SECTION
2
ENTITIES
0
LWPOLYLINE
5
100
100
AcDbEntity
8
0
100
AcDbPolyline
90
8
70
1
43
0.0
10
-134.59999999999997
20
-93.450000000000003
42
0.41421356237309509
10
-133.60000000000011
20
-92.450000000000131
10
-133.59999999999997
20
-68.215004534589625
42
0.41421356237309243
10
-134.59999999999997
20
-67.21500453458961
10
-144.69999999999996
20
-67.215004534589639
42
0.41421356237309509
10
-145.69999999999996
20
-68.215004534589639
10
-145.69999999999996
20
-92.450000000000159
42
0.41421356237311063
10
-144.69999999999993
20
-93.450000000000145
0
LWPOLYLINE
5
101
100
AcDbEntity
8
0
100
AcDbPolyline
90
8
70
1
43
0.0
10
-125.33781418246241
20
-26.766841681572032
42
0.41421356237285789
10
-125.70383958624004
20
-25.400816277786369
10
-136.6157596739742
20
-19.100816277680327
42
0.41421356237563195
10
-137.9817850777649
20
-19.46684168146507
10
-144.28178507774476
20
-30.378761769199755
42
0.4142135623713073
10
-143.91575967396102
20
-31.744787172979873
10
-133.00383958629669
20
-38.044787173008537
42
0.41421356237261442
10
-131.6378141825121
20
-37.67876176922934
0
LWPOLYLINE
5
102
100
AcDbEntity
8
0
100
AcDbPolyline
90
8
70
1
43
0.0
10
-93.782871999999998
20
-86.634699000000012
42
0.41421356237309509
10
-94.782871999999983
20
-85.634699000000012
10
-107.38287199999999
20
-85.634698999999983
42
0.41421356237309509
10
-108.38287199999998
20
-86.634698999999969
10
-108.38287199999996
20
-98.634698999999969
42
0.41421356237309509
10
-107.38287199999996
20
-99.634698999999955
10
-94.782871999999998
20
-99.634698999999983
42
0.41421356237310542
10
-93.782872000000012
20
-98.634698999999983
0
LWPOLYLINE
5
103
100
AcDbEntity
8
0
100
AcDbPolyline
90
8
70
1
43
0.0
10
-74.782871999999983
20
-70.009698999999983
42
0.41421356237311319
10
-75.782871999999969
20
-69.009698999999983
10
-88.382871999999949
20
-69.009698999999998
42
0.41421356237309509
10
-89.382871999999935
20
-70.009698999999998
10
-89.382871999999963
20
-82.009698999999983
42
0.41421356237309509
10
-88.382871999999963
20
-83.009698999999983
10
-75.782871999999969
20
-83.009698999999983
42
0.41421356237307427
10
-74.782871999999955
20
-82.009699000000012
0
LWPOLYLINE
5
104
100
AcDbEntity
8
0
100
AcDbPolyline
90
8
70
1
43
0.0
10
-55.782872000000012
20
-48.634698999999991
42
0.41421356237309509
10
-56.782872000000005
20
-47.634698999999998
10
-69.38287200000002
20
-47.634698999999969
42
0.41421356237311319
10
-70.38287200000002
20
-48.634698999999976
10
-70.38287200000002
20
-60.634699000000012
42
0.41421356237309509
10
-69.38287200000002
20
-61.634699000000012
10
-56.782871999999998
20
-61.634699000000012
42
0.41421356237309509
10
-55.782871999999998
20
-60.634699000000012
0
LWPOLYLINE
5
105
100
AcDbEntity
8
0
100
AcDbPolyline
90
8
70
1
43
0.0
10
-17.782871999999998
20
-81.884699000000012
42
0.41421356237309759
10
-18.782871999999994
20
-80.88469900000004
10
-31.382871999999999
20
-80.884698999999983
42
0.41421356237309637
10
-32.382872000000006
20
-81.884698999999983
10
-32.38287200000002
20
-93.884699000000012
42
0.41421356237309892
10
-31.38287200000001
20
-94.884698999999998
10
-18.782871999999998
20
-94.884698999999998
42
0.41421356237309692
10
-17.782871999999998
20
-93.884699000000012
0
LWPOLYLINE
5
106
100
AcDbEntity
8
0
100
AcDbPolyline
90
8
70
1
43
0.0
10
-17.782872000000005
20
-43.884698999999998
42
0.41421356237310153
10
-18.782871999999998
20
-42.884699000000012
10
-31.382872000000013
20
-42.884698999999991
42
0.4142135623731002
10
-32.382872000000013
20
-43.884698999999969
10
-32.382872000000013
20
-55.884698999999991
42
0.41421356237309509
10
-31.38287200000001
20
-56.884698999999998
10
-18.782872000000001
20
-56.884698999999976
42
0.41421356237309637
10
-17.782871999999998
20
-55.884698999999983
0
LWPOLYLINE
5
107
100
AcDbEntity
8
0
100
AcDbPolyline
90
8
70
1
43
0.0
10
-37.782872000000012
20
-56.884698999999983
42
0.4142135623730937
10
-36.782872000000012
20
-55.884698999999998
10
-36.782872000000012
20
-43.884698999999998
42
0.41421356237309509
10
-37.782872000000019
20
-42.884698999999991
10
-50.382871999999992
20
-42.884698999999998
42
0.41421356237309509
10
-51.382871999999992
20
-43.884698999999998
10
-51.382872000000013
20
-55.884698999999991
42
0.41421356237309509
10
-50.38287200000002
20
-56.884698999999983
0
LWPOLYLINE
5
108
100
AcDbEntity
8
0
100
AcDbPolyline
90
8
70
1
43
0.0
10
-75.782871999999998
20
-102.00969899999998
42
0.41421356237309243
10
-74.782871999999983
20
-101.00969899999998
10
-74.782871999999998
20
-89.009698999999998
42
0.41421356237309759
10
-75.782871999999998
20
-88.009699000000012
10
-88.38287200000002
20
-88.009698999999998
42
0.41421356237309509
10
-89.38287200000002
20
-89.009698999999998
10
-89.382871999999978
20
-101.00969899999997
42
0.41421356237309509
10
-88.382871999999978
20
-102.00969899999997
0
LWPOLYLINE
5
109
100
AcDbEntity
8
0
100
AcDbPolyline
90
8
70
1
43
0.0
10
-94.782871999999969
20
-80.634699000000012
42
0.41421356237311063
10
-93.782871999999998
20
-79.634699000000012
10
-93.782871999999998
20
-67.634699000000012
42
0.41421356237309509
10
-94.782871999999983
20
-66.634699000000012
10
-107.38287199999995
20
-66.63469900000004
42
0.41421356237309759
10
-108.38287199999995
20
-67.63469900000004
10
-108.38287199999996
20
-79.634699000000012
42
0.41421356237309509
10
-107.38287199999996
20
-80.634699000000012
0
LWPOLYLINE
5
110
100
AcDbEntity
8
0
100
AcDbPolyline
90
8
70
1
43
0.0
10
-112.78287200000001
20
-46.259698999999998
42
0.41421356237309509
10
-113.78287200000001
20
-45.259698999999998
10
-126.38287200000001
20
-45.259698999999969
42
0.41421356237309759
10
-127.38287200000001
20
-46.259698999999976
10
-127.38287199999999
20
-58.259699000000005
42
0.41421356237308726
10
-126.38287200000001
20
-59.259698999999991
10
-113.78287200000001
20
-59.259698999999998
42
0.41421356237309509
10
-112.78287200000001
20
-58.259699000000005
0
LWPOLYLINE
5
111
100
AcDbEntity
8
0
100
AcDbPolyline
90
8
70
1
43
0.0
10
-103.94626528820645
20
-28.403775603249585
42
0.41421356237150075
10
-104.6533720693898
20
-27.179030731860585
10
-116.82403748059383
20
-23.917910763529839
42
0.41421356237407664
10
-118.04878235198896
20
-24.625017544715028
10
-121.15461089322373
20
-36.216127460182463
42
0.41421356237209167
10
-120.44750411204093
20
-37.440872331573452
10
-108.27683870081304
20
-40.701992299910785
42
0.41421356237468515
10
-107.05209382941737
20
-39.994885518723613
0
LWPOLYLINE
5
112
100
AcDbEntity
8
0
100
AcDbPolyline
90
8
70
1
43
0.0
10
-113.78287200000001
20
-97.259699000000026
42
0.41421356237309509
10
-112.78287200000001
20
-96.259699000000026
10
-112.78287200000001
20
-84.259698999999983
42
0.41421356237309509
10
-113.78287200000001
20
-83.259698999999983
10
-126.38287200000005
20
-83.259698999999983
42
0.41421356237310542
10
-127.38287200000003
20
-84.259698999999983
10
-127.38287200000001
20
-96.259699000000026
42
0.41421356237309509
10
-126.38287200000001
20
-97.259699000000026
0
LWPOLYLINE
5
113
100
AcDbEntity
8
0
100
AcDbPolyline
90
8
70
1
43
0.0
10
-74.782871999999983
20
-51.009698999999983
42
0.41421356237311319
10
-75.782871999999969
20
-50.009698999999976
10
-88.38287200000002
20
-50.009698999999969
42
0.41421356237309243
10
-89.38287200000002
20
-51.009698999999983
10
-89.382871999999978
20
-63.009698999999969
42
0.41421356237308726
10
-88.382871999999992
20
-64.009698999999955
10
-75.782871999999969
20
-64.009698999999955
42
0.41421356237309509
10
-74.782871999999983
20
-63.009698999999969
0
LWPOLYLINE
5
114
100
AcDbEntity
8
0
100
AcDbPolyline
90
7
70
1
43
0.0
10
-70.382872000000006
20
-79.634699000000012
10
-70.38287200000002
20
-66.634699000000026
10
-56.782872000000012
20
-66.634698999999998
42
-0.41421356237308465
10
-55.782872000000012
20
-67.634699000000012
10
-55.782871999999998
20
-79.634699000000012
42
-0.41421356237309509
10
-56.782871999999998
20
-80.634699000000012
10
-69.382872000000006
20
-80.634699000000012
42
-0.41421356237309509
0
LWPOLYLINE
5
115
100
AcDbEntity
8
0
100
AcDbPolyline
90
8
70
1
43
0.0
10
-36.782872000000005
20
-81.884699000000012
42
0.41421356237309892
10
-37.782872000000019
20
-80.884699000000012
10
-50.382872000000006
20
-80.88469900000004
42
0.41421356237308726
10
-51.382871999999999
20
-81.884699000000012
10
-51.38287200000002
20
-93.884699000000012
42
0.41421356237310281
10
-50.38287200000002
20
-94.884698999999998
10
-37.782872000000019
20
-94.884698999999998
42
0.41421356237309892
10
-36.782872000000005
20
-93.884699000000012
0
LWPOLYLINE
5
116
100
AcDbEntity
8
0
100
AcDbPolyline
90
8
70
1
43
0.0
10
-17.782872000000005
20
-62.884698999999983
42
0.41421356237309637
10
-18.782872000000005
20
-61.884698999999983
10
-31.382871999999988
20
-61.884698999999976
42
0.41421356237309509
10
-32.382871999999992
20
-62.884698999999969
10
-32.382872000000013
20
-74.884698999999983
42
0.41421356237309109
10
-31.382872000000006
20
-75.884698999999983
10
-18.782872000000008
20
-75.884698999999983
42
0.4142135623730957
10
-17.782872000000008
20
-74.884698999999998
0
LWPOLYLINE
5
117
100
AcDbEntity
8
0
100
AcDbPolyline
90
8
70
1
43
0.0
10
-36.782872000000026
20
-62.884698999999983
42
0.41421356237309892
10
-37.782872000000019
20
-61.884698999999998
10
-50.382872000000006
20
-61.884698999999941
42
0.41421356237309759
10
-51.382872000000013
20
-62.884698999999941
10
-51.382872000000013
20
-74.884698999999998
42
0.41421356237309509
10
-50.38287200000002
20
-75.884698999999998
10
-37.782872000000019
20
-75.884698999999998
42
0.41421356237309637
10
-36.782872000000019
20
-74.884698999999998
0
LWPOLYLINE
5
118
100
AcDbEntity
8
0
100
AcDbPolyline
90
8
70
1
43
0.0
10
-55.782872000000012
20
-86.634699000000012
42
0.41421356237309509
10
-56.782872000000005
20
-85.634699000000012
10
-69.38287200000002
20
-85.63469900000004
42
0.41421356237308726
10
-70.382872000000006
20
-86.634699000000026
10
-70.382872000000006
20
-98.634699000000012
42
0.41421356237309243
10
-69.382871999999992
20
-99.634699000000012
10
-56.782871999999998
20
-99.634698999999983
42
0.41421356237309759
10
-55.78287199999999
20
-98.634698999999983
0
LWPOLYLINE
5
119
100
AcDbEntity
8
0
100
AcDbPolyline
90
8
70
1
43
0.0
10
-93.782871999999998
20
-48.634699000000012
42
0.41421356237309509
10
-94.782871999999983
20
-47.634699000000012
10
-107.38287200000001
20
-47.634699000000012
42
0.41421356237309509
10
-108.38287199999999
20
-48.634699000000012
10
-108.38287199999999
20
-60.634699000000026
42
0.41421356237309509
10
-107.38287200000001
20
-61.634699000000026
10
-94.782871999999998
20
-61.634699000000026
42
0.41421356237310281
10
-93.782872000000026
20
-60.634699000000026
0
LWPOLYLINE
5
120
100
AcDbEntity
8
0
100
AcDbPolyline
90
8
70
1
43
0.0
10
-113.782872
20
-78.259698999999983
42
0.41421356237310281
10
-112.78287200000001
20
-77.259698999999983
10
-112.78287200000001
20
-65.259698999999983
42
0.41421356237309243
10
-113.78287200000001
20
-64.259698999999969
10
-126.38287200000001
20
-64.259698999999998
42
0.41421356237310281
10
-127.38287199999999
20
-65.259698999999998
10
-127.38287199999999
20
-77.259698999999983
42
0.41421356237308726
10
-126.38287200000001
20
-78.259698999999983
0
LWPOLYLINE
5
121
100
AcDbEntity
8
0
100
AcDbPolyline
90
8
70
1
43
0.0
10
-84.282871999999998
20
-28.977699000000008
42
0.41421356237309509
10
-85.282871999999998
20
-27.977699000000015
10
-97.882871999999992
20
-27.977699000000005
42
0.41421356237309637
10
-98.882871999999992
20
-28.977699000000008
10
-98.882871999999963
20
-40.97769900000003
42
0.41421356237308726
10
-97.882871999999992
20
-41.977699000000015
10
-85.282871999999998
20
-41.97769900000003
42
0.41421356237309509
10
-84.282871999999998
20
-40.97769900000003
0
LWPOLYLINE
5
122
100
AcDbEntity
8
0
100
AcDbPolyline
90
96
70
1
43
0.0
10
-71.732871999997329
20
-106.30969899999849
10
-71.732871999996803
20
-106.48469900017476
42
0.41421356237221058
10
-71.232871999996803
20
-106.98469900017326
10
-54.732872
20
-106.98469900017329
42
0.41421356236671203
10
-51.732871999999965
20
-103.98469900023866
10
-51.732871999972765
20
-102.73469899998368
42
-0.41421356236672152
10
-51.232871999978201
20
-102.23469900000001
10
-26.732872000000008
20
-102.23469900000001
42
0.41421356237309293
10
-23.732872000000004
20
-99.23469900000002
10
-23.732872000000004
20
-99.184698999999981
42
-0.41421356237309509
10
-23.232871999999997
20
-98.684698999999966
10
-16.932872000000003
20
-98.684698999999966
42
0.41421356237309509
10
-14.282871999999998
20
-96.034698999999961
10
-14.28287199999999
20
-84.384699000000012
42
-0.41421356237309109
10
-13.782871999999973
20
-83.884698999999983
10
-13.732871999999992
20
-83.884698999999983
42
0.41421356237309509
10
-10.732872000000002
20
-80.884698999999998
10
-10.732871999999993
20
-56.884698999999983
42
0.41421356237309509
10
-13.732871999999999
20
-53.884698999999983
10
-13.782871999999999
20
-53.884698999999983
42
-0.41421356237309509
10
-14.282871999999998
20
-53.384698999999991
10
-14.282871999999998
20
-41.734698999999999
42
0.41421356237309509
10
-16.932872
20
-39.084698999999993
10
-28.582872000000012
20
-39.084698999999993
42
-0.41421356237309509
10
-29.082872000000009
20
-38.584698999999993
10
-29.082872000000009
20
-38.534698999999989
42
0.41421356237309509
10
-32.082872000000016
20
-35.534698999999989
10
-56.082872000000002
20
-35.534699000000018
42
0.41421356237310625
10
-59.082872000000037
20
-38.534699000000167
10
-59.082872000000037
20
-38.584698999999901
42
-0.41421356237311319
10
-59.582872000000044
20
-39.084698999999922
10
-70.76517589791986
20
-39.084699000000015
42
-0.2396173258357161
10
-71.169170839868926
20
-38.879297178676623
10
-81.449645961642176
20
-24.781246848946452
42
0.20592414080609589
10
-82.469572594826218
20
-24.177387644809897
10
-91.096358708444882
20
-23.063657409918012
42
-0.41421356237308826
10
-91.528223890945938
20
-22.50375343230818
10
-91.521821951190191
20
-22.454164974300515
42
0.41421356237309637
10
-94.113013046196571
20
-19.094741108641461
10
-106.01424296752651
20
-17.558275567336263
42
0.41421356237311002
10
-109.37366683318677
20
-20.149466662343709
10
-109.38006877294251
20
-20.199055120350291
42
-0.41421356237308471
10
-109.93997275055234
20
-20.630920302851372
10
-119.72155289000864
20
-19.36810453312545
42
-0.099124638188913095
10
-120.27949469734565
20
-19.17948889863564
10
-120.6146091017289
20
-18.986010507055649
42
-0.4142135623731138
10
-120.79762180362104
20
-18.302997805163422
10
-120.77262180362064
20
-18.259696534973511
42
0.41421356237309603
10
-121.87069801497337
20
-14.161620323620014
10
-128.79890124524985
20
-10.161620323618106
42
0.41421356237308898
10
-132.89697745660243
20
-11.25969653497056
10
-133.24697745660114
20
-11.865914317621915
42
-0.41421356237311474
10
-133.92999015849352
20
-12.048927019514053
10
-134.40630413058062
20
-11.773927019510673
42
0.41421356237310486
10
-137.27495747852811
20
-12.542580367457631
10
-137.59995747849752
20
-13.105496879864379
42
-0.41421356237305512
10
-138.28297018038973
20
-13.288509581756555
10
-138.88918796320158
20
-12.938509581662938
42
0.41421356237305496
10
-142.9872641745547
20
-14.036585793015867
10
-148.9872643564307
20
-24.428890953444107
42
0.41421366382676983
10
-147.88918727684003
20
-28.526967566085165
10
-147.84588697275734
20
-28.551966988305225
42
-0.41421366382672953
10
-147.6628741208763
20
-29.234979776793473
10
-150.2318599485113
20
-33.684593754182103
42
0.13165470117934411
10
-150.43282184277837
20
-34.434606750473364
10
-150.43272694011773
20
-45.388038605227081
42
0.41421356237308982
10
-149.43271827596112
20
-46.388029940995359
10
-136.97704505448527
20
-46.387922022624153
42
-0.414213562373069
10
-136.47704072240697
20
-46.887917690508296
10
-136.47697258642319
20
-54.752005510114898
42
0.41421356237308982
10
-135.97696825434485
20
-55.252001177999041
10
-134.8410129963288
20
-55.251991335862137
42
-0.41421356237307944
10
-134.34100866425047
20
-55.751987003746294
10
-134.34099133578709
20
-57.751995667902918
42
-0.41421610005911447
10
-134.84099133576831
20
-58.25200000000001
10
-144.43261115193647
20
-58.25200000000001
42
0.4142161000591093
10
-144.93261115191771
20
-58.752004332097094
10
-144.93259471605396
20
-60.648991335805832
42
-0.41421610005909104
10
-145.93259471601641
20
-61.649000000000001
10
-149.4325773877589
20
-61.649000000000001
42
0.41421610005909104
10
-150.43257738772138
20
-62.64900866419417
10
-150.4322961271603
20
-95.111411421098367
42
0.41423736405446254
10
-148.43211627216829
20
-97.111394084623029
10
-131.33296192753352
20
-97.109856399841036
42
-0.41423990178316478
10
-130.33287200000001
20
-98.109856395797522
10
-130.33287200000001
20
-99.559698999999995
42
0.41421356237309509
10
-128.83287200000001
20
-101.05969899999999
10
-122.93287199999997
20
-101.05969899999999
42
-0.41421356237308121
10
-121.43287199999997
20
-102.55969899999999
10
-121.43287199999997
20
-103.98469900017312
42
0.41421356237309509
10
-118.43287199999997
20
-106.98469900017314
10
-92.932871999999946
20
-106.98469900017318
42
0.41421356237309509
10
-92.432871999999975
20
-106.48469900017321
10
-92.432871999999975
20
-106.30969900000002
42
-0.41421356237307427
10
-91.932871999999975
20
-105.80969900000001
10
-72.232871999997343
20
-105.80969899999999
42
-0.41421356237223655
0
ENDSEC
0
SECTION
2
OBJECTS
0
DICTIONARY
5
C
100
AcDbDictionary
3
ACAD_GROUP
350
D
3
ACAD_MLINESTYLE
350
17
0
DICTIONARY
5
D
100
AcDbDictionary
0
DICTIONARY
5
1A
330
C
100
AcDbDictionary
0
DICTIONARY
5
17
100
AcDbDictionary
0
ENDSEC
0
EOF
